<svg width="248" height="161" viewBox="0 0 248 161" fill="none" xmlns="http://www.w3.org/2000/svg">
<path d="M201.002 48.0125C201.002 46.2148 202.459 44.7574 204.257 44.7574H233.146C234.943 44.7574 236.401 46.2148 236.401 48.0125V118.811C236.401 120.608 234.943 122.066 233.146 122.066H204.257C202.459 122.066 201.002 120.608 201.002 118.811V48.0125Z" fill="#7B7B7B" fill-opacity="0.44"/>
<path d="M11.3928 48.0125C11.3928 46.2148 12.8501 44.7574 14.6479 44.7574H43.5368C45.3345 44.7574 46.7919 46.2148 46.7919 48.0125V118.811C46.7919 120.608 45.3345 122.066 43.5368 122.066H14.6479C12.8501 122.066 11.3928 120.608 11.3928 118.811V48.0125Z" fill="#7B7B7B" fill-opacity="0.44"/>
<rect x="12.2066" y="11.3928" width="222.973" height="137.527" rx="4.88263" stroke="#A2A2A2" stroke-width="3.25509"/>
<rect x="52.8951" y="40.6886" width="141.596" height="86.2598" rx="3.25509" fill="#7B7B7B" fill-opacity="0.44"/>
<path d="M111.151 78.7383C111.027 78.5105 110.848 78.338 110.614 78.2208C110.386 78.0971 110.116 78.0352 109.803 78.0352C109.263 78.0352 108.83 78.2143 108.504 78.5723C108.179 78.9239 108.016 79.3959 108.016 79.9883C108.016 80.6198 108.185 81.1145 108.524 81.4726C108.869 81.8242 109.341 81.9999 109.94 81.9999C110.35 81.9999 110.695 81.8958 110.975 81.6874C111.261 81.4791 111.47 81.1796 111.6 80.789H109.481V79.5586H113.114V81.1113C112.99 81.5279 112.778 81.9153 112.479 82.2734C112.186 82.6314 111.812 82.9211 111.356 83.1425C110.9 83.3638 110.386 83.4745 109.813 83.4745C109.136 83.4745 108.53 83.328 107.997 83.035C107.469 82.7356 107.056 82.3222 106.756 81.7949C106.463 81.2675 106.317 80.6653 106.317 79.9883C106.317 79.3112 106.463 78.709 106.756 78.1817C107.056 77.6479 107.469 77.2345 107.997 76.9415C108.524 76.6421 109.126 76.4923 109.803 76.4923C110.623 76.4923 111.314 76.6909 111.873 77.088C112.44 77.4851 112.814 78.0352 112.996 78.7383H111.151ZM117.359 77.9181C117.997 77.9181 118.505 78.1264 118.882 78.543C119.266 78.9532 119.458 79.5196 119.458 80.2422V83.4257H117.798V80.4668C117.798 80.1022 117.704 79.819 117.515 79.6172C117.326 79.4154 117.072 79.3145 116.753 79.3145C116.434 79.3145 116.18 79.4154 115.992 79.6172C115.803 79.819 115.708 80.1022 115.708 80.4668V83.4257H114.039V77.9766H115.708V78.6993C115.878 78.4584 116.106 78.2696 116.392 78.1329C116.678 77.9897 117.001 77.9181 117.359 77.9181ZM123.099 83.5038C122.565 83.5038 122.083 83.3899 121.654 83.162C121.231 82.9341 120.895 82.6086 120.648 82.1855C120.407 81.7623 120.287 81.2675 120.287 80.7012C120.287 80.1413 120.41 79.6498 120.658 79.2266C120.905 78.7969 121.244 78.4682 121.673 78.2403C122.103 78.0125 122.585 77.8985 123.119 77.8985C123.652 77.8985 124.134 78.0125 124.564 78.2403C124.994 78.4682 125.332 78.7969 125.579 79.2266C125.827 79.6498 125.951 80.1413 125.951 80.7012C125.951 81.261 125.824 81.7558 125.57 82.1855C125.322 82.6086 124.98 82.9341 124.544 83.162C124.115 83.3899 123.633 83.5038 123.099 83.5038ZM123.099 82.0585C123.418 82.0585 123.688 81.9413 123.91 81.707C124.137 81.4726 124.251 81.1373 124.251 80.7012C124.251 80.265 124.141 79.9297 123.919 79.6953C123.704 79.461 123.438 79.3438 123.119 79.3438C122.793 79.3438 122.523 79.461 122.308 79.6953C122.093 79.9232 121.986 80.2585 121.986 80.7012C121.986 81.1373 122.09 81.4726 122.298 81.707C122.513 81.9413 122.78 82.0585 123.099 82.0585ZM133.789 77.9181C134.466 77.9181 135.003 78.1231 135.401 78.5333C135.804 78.9434 136.006 79.513 136.006 80.2422V83.4257H134.346V80.4668C134.346 80.1152 134.251 79.8451 134.063 79.6563C133.88 79.461 133.627 79.3633 133.301 79.3633C132.975 79.3633 132.718 79.461 132.53 79.6563C132.347 79.8451 132.256 80.1152 132.256 80.4668V83.4257H130.596V80.4668C130.596 80.1152 130.502 79.8451 130.313 79.6563C130.131 79.461 129.877 79.3633 129.551 79.3633C129.226 79.3633 128.968 79.461 128.78 79.6563C128.597 79.8451 128.506 80.1152 128.506 80.4668V83.4257H126.836V77.9766H128.506V78.6602C128.676 78.4324 128.897 78.2533 129.17 78.1231C129.444 77.9864 129.753 77.9181 130.098 77.9181C130.508 77.9181 130.873 78.0059 131.192 78.1817C131.517 78.3575 131.771 78.6081 131.953 78.9336C132.142 78.6342 132.399 78.39 132.725 78.2012C133.05 78.0125 133.405 77.9181 133.789 77.9181ZM142.31 80.6133C142.31 80.7695 142.301 80.9323 142.281 81.1015H138.502C138.528 81.4401 138.635 81.7005 138.824 81.8827C139.019 82.0585 139.257 82.1464 139.537 82.1464C139.954 82.1464 140.243 81.9706 140.406 81.6191H142.183C142.092 81.9771 141.926 82.2994 141.685 82.5858C141.451 82.8723 141.155 83.0969 140.797 83.2596C140.439 83.4224 140.038 83.5038 139.596 83.5038C139.062 83.5038 138.587 83.3899 138.17 83.162C137.753 82.9341 137.428 82.6086 137.193 82.1855C136.959 81.7623 136.842 81.2675 136.842 80.7012C136.842 80.1348 136.956 79.64 137.184 79.2168C137.418 78.7937 137.743 78.4682 138.16 78.2403C138.577 78.0125 139.055 77.8985 139.596 77.8985C140.123 77.8985 140.592 78.0092 141.002 78.2305C141.412 78.4519 141.731 78.7676 141.959 79.1778C142.193 79.5879 142.31 80.0664 142.31 80.6133ZM140.601 80.1738C140.601 79.8874 140.504 79.6595 140.308 79.4903C140.113 79.321 139.869 79.2364 139.576 79.2364C139.296 79.2364 139.059 79.3177 138.863 79.4805C138.674 79.6432 138.557 79.8744 138.512 80.1738H140.601Z" fill="#A2A2A2"/>
<rect x="71.6119" y="129.39" width="104.977" height="15.4617" rx="7.73083" fill="#7B7B7B" fill-opacity="0.44"/>
<rect x="92.77" y="21.9718" width="29.2958" height="16.2754" rx="0.813771" fill="#7B7B7B" fill-opacity="0.44"/>
<rect x="123.693" y="21.9718" width="29.2958" height="16.2754" rx="0.813771" fill="#7B7B7B" fill-opacity="0.44"/>
</svg>
