<svg width="248" height="162" viewBox="0 0 248 162" fill="none" xmlns="http://www.w3.org/2000/svg">
<rect x="71.6119" y="131.047" width="104.977" height="15.4617" rx="2.44131" fill="#7B7B7B" fill-opacity="0.44"/>
<rect x="12.2066" y="13.8639" width="222.973" height="6.51017" rx="2.44131" fill="#7B7B7B" fill-opacity="0.44"/>
<rect x="12.2066" y="12.2363" width="222.973" height="137.527" rx="4.88263" stroke="#A2A2A2" stroke-width="3.25509"/>
<path d="M104.514 77.414V84.2692H102.844V80.158L101.311 84.2692H99.9636L98.4207 80.1482V84.2692H96.7509V77.414H98.7234L100.647 82.1599L102.551 77.414H104.514ZM105.383 81.5349C105.383 80.975 105.487 80.4835 105.696 80.0603C105.91 79.6372 106.2 79.3117 106.565 79.0838C106.929 78.856 107.336 78.742 107.785 78.742C108.169 78.742 108.505 78.8202 108.791 78.9764C109.084 79.1326 109.309 79.3377 109.465 79.5916V78.8202H111.135V84.2692H109.465V83.4977C109.302 83.7516 109.074 83.9567 108.781 84.1129C108.495 84.2692 108.16 84.3473 107.776 84.3473C107.333 84.3473 106.929 84.2334 106.565 84.0055C106.2 83.7711 105.91 83.4424 105.696 83.0192C105.487 82.5895 105.383 82.0948 105.383 81.5349ZM109.465 81.5447C109.465 81.128 109.348 80.7992 109.113 80.5584C108.886 80.3175 108.606 80.1971 108.274 80.1971C107.942 80.1971 107.658 80.3175 107.424 80.5584C107.196 80.7927 107.082 81.1182 107.082 81.5349C107.082 81.9515 107.196 82.2836 107.424 82.5309C107.658 82.7718 107.942 82.8923 108.274 82.8923C108.606 82.8923 108.886 82.7718 109.113 82.5309C109.348 82.2901 109.465 81.9613 109.465 81.5447ZM112.011 81.5447C112.011 80.9783 112.125 80.4835 112.353 80.0603C112.587 79.6372 112.909 79.3117 113.319 79.0838C113.736 78.856 114.211 78.742 114.745 78.742C115.429 78.742 115.998 78.9211 116.454 79.2791C116.916 79.6372 117.219 80.1417 117.362 80.7927H115.585C115.435 80.3761 115.145 80.1678 114.716 80.1678C114.41 80.1678 114.166 80.2882 113.983 80.5291C113.801 80.7634 113.71 81.102 113.71 81.5447C113.71 81.9873 113.801 82.3291 113.983 82.57C114.166 82.8044 114.41 82.9216 114.716 82.9216C115.145 82.9216 115.435 82.7132 115.585 82.2966H117.362C117.219 82.9346 116.916 83.4359 116.454 83.8004C115.992 84.165 115.422 84.3473 114.745 84.3473C114.211 84.3473 113.736 84.2334 113.319 84.0055C112.909 83.7776 112.587 83.4521 112.353 83.029C112.125 82.6058 112.011 82.111 112.011 81.5447ZM121.497 84.3375C120.853 84.3375 120.261 84.1878 119.72 83.8883C119.186 83.5889 118.76 83.1722 118.441 82.6384C118.128 82.098 117.972 81.4926 117.972 80.822C117.972 80.1515 118.128 79.5493 118.441 79.0155C118.76 78.4816 119.186 78.065 119.72 77.7655C120.261 77.466 120.853 77.3163 121.497 77.3163C122.142 77.3163 122.731 77.466 123.265 77.7655C123.805 78.065 124.228 78.4816 124.534 79.0155C124.847 79.5493 125.003 80.1515 125.003 80.822C125.003 81.4926 124.847 82.098 124.534 82.6384C124.222 83.1722 123.799 83.5889 123.265 83.8883C122.731 84.1878 122.142 84.3375 121.497 84.3375ZM121.497 82.8141C122.044 82.8141 122.48 82.6319 122.806 82.2673C123.138 81.9027 123.304 81.421 123.304 80.822C123.304 80.2166 123.138 79.7348 122.806 79.3768C122.48 79.0122 122.044 78.8299 121.497 78.8299C120.944 78.8299 120.501 79.0089 120.169 79.367C119.844 79.7251 119.681 80.2101 119.681 80.822C119.681 81.4275 119.844 81.9125 120.169 82.2771C120.501 82.6351 120.944 82.8141 121.497 82.8141ZM128.413 84.3375C127.911 84.3375 127.462 84.2561 127.065 84.0934C126.668 83.9306 126.349 83.6898 126.108 83.3708C125.874 83.0518 125.75 82.6677 125.737 82.2185H127.514C127.54 82.4724 127.628 82.6677 127.778 82.8044C127.928 82.9346 128.123 82.9997 128.364 82.9997C128.611 82.9997 128.806 82.9443 128.95 82.8337C129.093 82.7165 129.164 82.557 129.164 82.3552C129.164 82.1859 129.106 82.0459 128.989 81.9353C128.878 81.8246 128.738 81.7335 128.569 81.6618C128.406 81.5902 128.172 81.5089 127.866 81.4177C127.423 81.281 127.062 81.1443 126.782 81.0076C126.502 80.8709 126.261 80.669 126.059 80.4021C125.857 80.1352 125.756 79.7869 125.756 79.3572C125.756 78.7192 125.988 78.2212 126.45 77.8632C126.912 77.4986 127.514 77.3163 128.256 77.3163C129.011 77.3163 129.62 77.4986 130.082 77.8632C130.545 78.2212 130.792 78.7225 130.825 79.367H129.018C129.005 79.1457 128.924 78.9731 128.774 78.8494C128.624 78.7192 128.432 78.6541 128.198 78.6541C127.996 78.6541 127.833 78.7095 127.709 78.8202C127.586 78.9243 127.524 79.0773 127.524 79.2791C127.524 79.5005 127.628 79.673 127.836 79.7967C128.045 79.9204 128.37 80.0538 128.813 80.1971C129.256 80.3468 129.614 80.49 129.887 80.6267C130.167 80.7634 130.408 80.962 130.61 81.2224C130.812 81.4828 130.912 81.8181 130.912 82.2282C130.912 82.6188 130.812 82.9736 130.61 83.2926C130.414 83.6116 130.128 83.8655 129.75 84.0543C129.373 84.2431 128.927 84.3375 128.413 84.3375ZM136.139 80.1482V81.5349H131.842V80.1482H136.139ZM138.445 78.2538C138.152 78.2538 137.911 78.1691 137.722 77.9999C137.54 77.8241 137.448 77.6093 137.448 77.3554C137.448 77.095 137.54 76.8801 137.722 76.7109C137.911 76.5351 138.152 76.4472 138.445 76.4472C138.731 76.4472 138.965 76.5351 139.148 76.7109C139.336 76.8801 139.431 77.095 139.431 77.3554C139.431 77.6093 139.336 77.8241 139.148 77.9999C138.965 78.1691 138.731 78.2538 138.445 78.2538ZM139.275 78.8202V84.2692H137.605V78.8202H139.275ZM142.701 84.3473C142.226 84.3473 141.803 84.2659 141.432 84.1032C141.061 83.9404 140.768 83.7191 140.553 83.4391C140.338 83.1527 140.218 82.8337 140.192 82.4821H141.842C141.862 82.6709 141.949 82.8239 142.106 82.9411C142.262 83.0583 142.454 83.1169 142.682 83.1169C142.89 83.1169 143.05 83.0778 143.16 82.9997C143.278 82.915 143.336 82.8076 143.336 82.6774C143.336 82.5212 143.255 82.4073 143.092 82.3356C142.929 82.2575 142.666 82.1729 142.301 82.0817C141.91 81.9906 141.585 81.8962 141.325 81.7986C141.064 81.6944 140.84 81.5349 140.651 81.3201C140.462 81.0987 140.368 80.8025 140.368 80.4314C140.368 80.1189 140.452 79.8357 140.621 79.5818C140.797 79.3214 141.051 79.1164 141.383 78.9666C141.722 78.8169 142.122 78.742 142.584 78.742C143.268 78.742 143.805 78.9113 144.196 79.2498C144.593 79.5884 144.82 80.0376 144.879 80.5974H143.336C143.31 80.4086 143.225 80.2589 143.082 80.1482C142.946 80.0376 142.763 79.9822 142.535 79.9822C142.34 79.9822 142.19 80.0213 142.086 80.0994C141.982 80.171 141.93 80.2719 141.93 80.4021C141.93 80.5584 142.011 80.6756 142.174 80.7537C142.343 80.8318 142.604 80.9099 142.955 80.988C143.359 81.0922 143.688 81.1964 143.942 81.3005C144.196 81.3982 144.417 81.5609 144.606 81.7888C144.801 82.0101 144.902 82.3096 144.908 82.6872C144.908 83.0062 144.817 83.2926 144.635 83.5465C144.459 83.7939 144.202 83.9892 143.863 84.1325C143.531 84.2757 143.144 84.3473 142.701 84.3473ZM149.279 78.7616C149.904 78.7616 150.406 78.9699 150.783 79.3865C151.161 79.7967 151.35 80.3631 151.35 81.0857V84.2692H149.69V81.3103C149.69 80.9457 149.595 80.6625 149.406 80.4607C149.218 80.2589 148.964 80.158 148.645 80.158C148.326 80.158 148.072 80.2589 147.883 80.4607C147.694 80.6625 147.6 80.9457 147.6 81.3103V84.2692H145.93V77.0429H147.6V79.5525C147.769 79.3117 148 79.1196 148.293 78.9764C148.586 78.8332 148.915 78.7616 149.279 78.7616Z" fill="#A2A2A2"/>
</svg>
