<svg width="304" height="197" viewBox="0 0 304 197" fill="none" xmlns="http://www.w3.org/2000/svg">
<rect x="88" y="160" width="129" height="19" rx="3" fill="#7B7B7B"/>
<rect x="15" y="16" width="274" height="8" rx="3" fill="#7B7B7B"/>
<rect x="15" y="14" width="274" height="169" rx="6" stroke="white" stroke-width="4"/>
<path d="M128.524 93.576V102H126.472V96.948L124.588 102H122.932L121.036 96.936V102H118.984V93.576H121.408L123.772 99.408L126.112 93.576H128.524ZM129.592 98.64C129.592 97.952 129.72 97.348 129.976 96.828C130.24 96.308 130.596 95.908 131.044 95.628C131.492 95.348 131.992 95.208 132.544 95.208C133.016 95.208 133.428 95.304 133.78 95.496C134.14 95.688 134.416 95.94 134.608 96.252V95.304H136.66V102H134.608V101.052C134.408 101.364 134.128 101.616 133.768 101.808C133.416 102 133.004 102.096 132.532 102.096C131.988 102.096 131.492 101.956 131.044 101.676C130.596 101.388 130.24 100.984 129.976 100.464C129.72 99.936 129.592 99.328 129.592 98.64ZM134.608 98.652C134.608 98.14 134.464 97.736 134.176 97.44C133.896 97.144 133.552 96.996 133.144 96.996C132.736 96.996 132.388 97.144 132.1 97.44C131.82 97.728 131.68 98.128 131.68 98.64C131.68 99.152 131.82 99.56 132.1 99.864C132.388 100.16 132.736 100.308 133.144 100.308C133.552 100.308 133.896 100.16 134.176 99.864C134.464 99.568 134.608 99.164 134.608 98.652ZM137.736 98.652C137.736 97.956 137.876 97.348 138.156 96.828C138.444 96.308 138.84 95.908 139.344 95.628C139.856 95.348 140.44 95.208 141.096 95.208C141.936 95.208 142.636 95.428 143.196 95.868C143.764 96.308 144.136 96.928 144.312 97.728H142.128C141.944 97.216 141.588 96.96 141.06 96.96C140.684 96.96 140.384 97.108 140.16 97.404C139.936 97.692 139.824 98.108 139.824 98.652C139.824 99.196 139.936 99.616 140.16 99.912C140.384 100.2 140.684 100.344 141.06 100.344C141.588 100.344 141.944 100.088 142.128 99.576H144.312C144.136 100.36 143.764 100.976 143.196 101.424C142.628 101.872 141.928 102.096 141.096 102.096C140.44 102.096 139.856 101.956 139.344 101.676C138.84 101.396 138.444 100.996 138.156 100.476C137.876 99.956 137.736 99.348 137.736 98.652ZM149.394 102.084C148.602 102.084 147.874 101.9 147.21 101.532C146.554 101.164 146.03 100.652 145.638 99.996C145.254 99.332 145.062 98.588 145.062 97.764C145.062 96.94 145.254 96.2 145.638 95.544C146.03 94.888 146.554 94.376 147.21 94.008C147.874 93.64 148.602 93.456 149.394 93.456C150.186 93.456 150.91 93.64 151.566 94.008C152.23 94.376 152.75 94.888 153.126 95.544C153.51 96.2 153.702 96.94 153.702 97.764C153.702 98.588 153.51 99.332 153.126 99.996C152.742 100.652 152.222 101.164 151.566 101.532C150.91 101.9 150.186 102.084 149.394 102.084ZM149.394 100.212C150.066 100.212 150.602 99.988 151.002 99.54C151.41 99.092 151.614 98.5 151.614 97.764C151.614 97.02 151.41 96.428 151.002 95.988C150.602 95.54 150.066 95.316 149.394 95.316C148.714 95.316 148.17 95.536 147.762 95.976C147.362 96.416 147.162 97.012 147.162 97.764C147.162 98.508 147.362 99.104 147.762 99.552C148.17 99.992 148.714 100.212 149.394 100.212ZM157.892 102.084C157.276 102.084 156.724 101.984 156.236 101.784C155.748 101.584 155.356 101.288 155.06 100.896C154.772 100.504 154.62 100.032 154.604 99.48H156.788C156.82 99.792 156.928 100.032 157.112 100.2C157.296 100.36 157.536 100.44 157.832 100.44C158.136 100.44 158.376 100.372 158.552 100.236C158.728 100.092 158.816 99.896 158.816 99.648C158.816 99.44 158.744 99.268 158.6 99.132C158.464 98.996 158.292 98.884 158.084 98.796C157.884 98.708 157.596 98.608 157.22 98.496C156.676 98.328 156.232 98.16 155.888 97.992C155.544 97.824 155.248 97.576 155 97.248C154.752 96.92 154.628 96.492 154.628 95.964C154.628 95.18 154.912 94.568 155.48 94.128C156.048 93.68 156.788 93.456 157.7 93.456C158.628 93.456 159.376 93.68 159.944 94.128C160.512 94.568 160.816 95.184 160.856 95.976H158.636C158.62 95.704 158.52 95.492 158.336 95.34C158.152 95.18 157.916 95.1 157.628 95.1C157.38 95.1 157.18 95.168 157.028 95.304C156.876 95.432 156.8 95.62 156.8 95.868C156.8 96.14 156.928 96.352 157.184 96.504C157.44 96.656 157.84 96.82 158.384 96.996C158.928 97.18 159.368 97.356 159.704 97.524C160.048 97.692 160.344 97.936 160.592 98.256C160.84 98.576 160.964 98.988 160.964 99.492C160.964 99.972 160.84 100.408 160.592 100.8C160.352 101.192 160 101.504 159.536 101.736C159.072 101.968 158.524 102.084 157.892 102.084ZM167.386 96.936V98.64H162.106V96.936H167.386ZM170.219 94.608C169.859 94.608 169.563 94.504 169.331 94.296C169.107 94.08 168.995 93.816 168.995 93.504C168.995 93.184 169.107 92.92 169.331 92.712C169.563 92.496 169.859 92.388 170.219 92.388C170.571 92.388 170.859 92.496 171.083 92.712C171.315 92.92 171.431 93.184 171.431 93.504C171.431 93.816 171.315 94.08 171.083 94.296C170.859 94.504 170.571 94.608 170.219 94.608ZM171.239 95.304V102H169.187V95.304H171.239ZM175.45 102.096C174.866 102.096 174.346 101.996 173.89 101.796C173.434 101.596 173.074 101.324 172.81 100.98C172.546 100.628 172.398 100.236 172.366 99.804H174.394C174.418 100.036 174.526 100.224 174.718 100.368C174.91 100.512 175.146 100.584 175.426 100.584C175.682 100.584 175.878 100.536 176.014 100.44C176.158 100.336 176.23 100.204 176.23 100.044C176.23 99.852 176.13 99.712 175.93 99.624C175.73 99.528 175.406 99.424 174.958 99.312C174.478 99.2 174.078 99.084 173.758 98.964C173.438 98.836 173.162 98.64 172.93 98.376C172.698 98.104 172.582 97.74 172.582 97.284C172.582 96.9 172.686 96.552 172.894 96.24C173.11 95.92 173.422 95.668 173.83 95.484C174.246 95.3 174.738 95.208 175.306 95.208C176.146 95.208 176.806 95.416 177.286 95.832C177.774 96.248 178.054 96.8 178.126 97.488H176.23C176.198 97.256 176.094 97.072 175.918 96.936C175.75 96.8 175.526 96.732 175.246 96.732C175.006 96.732 174.822 96.78 174.694 96.876C174.566 96.964 174.502 97.088 174.502 97.248C174.502 97.44 174.602 97.584 174.802 97.68C175.01 97.776 175.33 97.872 175.762 97.968C176.258 98.096 176.662 98.224 176.974 98.352C177.286 98.472 177.558 98.672 177.79 98.952C178.03 99.224 178.154 99.592 178.162 100.056C178.162 100.448 178.05 100.8 177.826 101.112C177.61 101.416 177.294 101.656 176.878 101.832C176.47 102.008 175.994 102.096 175.45 102.096ZM183.534 95.232C184.302 95.232 184.918 95.488 185.382 96C185.846 96.504 186.078 97.2 186.078 98.088V102H184.038V98.364C184.038 97.916 183.922 97.568 183.69 97.32C183.458 97.072 183.146 96.948 182.754 96.948C182.362 96.948 182.05 97.072 181.818 97.32C181.586 97.568 181.47 97.916 181.47 98.364V102H179.418V93.12H181.47V96.204C181.678 95.908 181.962 95.672 182.322 95.496C182.682 95.32 183.086 95.232 183.534 95.232Z" fill="white"/>
</svg>
