<svg width="249" height="161" viewBox="0 0 249 161" fill="none" xmlns="http://www.w3.org/2000/svg">
<path d="M12.3302 13.0203H24.5368V148.106H12.3302V13.0203Z" fill="#7B7B7B" fill-opacity="0.44"/>
<rect x="12.3302" y="13.0203" width="222.973" height="6.51017" rx="0.813771" fill="#676767"/>
<rect x="13.144" y="11.3928" width="222.973" height="137.527" rx="4.88263" stroke="#A2A2A2" stroke-width="3.25509"/>
<rect x="26.9781" y="21.9718" width="202.629" height="122.066" rx="0.813771" fill="#7B7B7B" fill-opacity="0.44"/>
<path d="M99.033 76.5704V83.4257H97.3632V79.3145L95.83 83.4257H94.4824L92.9395 79.3047V83.4257H91.2696V76.5704H93.2422L95.166 81.3164L97.0702 76.5704H99.033ZM99.9018 80.6914C99.9018 80.1315 100.006 79.64 100.214 79.2168C100.429 78.7937 100.719 78.4682 101.083 78.2403C101.448 78.0125 101.855 77.8985 102.304 77.8985C102.688 77.8985 103.023 77.9766 103.31 78.1329C103.603 78.2891 103.827 78.4942 103.984 78.7481V77.9766H105.654V83.4257H103.984V82.6542C103.821 82.9081 103.593 83.1132 103.3 83.2694C103.014 83.4257 102.678 83.5038 102.294 83.5038C101.852 83.5038 101.448 83.3899 101.083 83.162C100.719 82.9276 100.429 82.5989 100.214 82.1757C100.006 81.746 99.9018 81.2513 99.9018 80.6914ZM103.984 80.7012C103.984 80.2845 103.867 79.9557 103.632 79.7149C103.404 79.474 103.124 79.3535 102.792 79.3535C102.46 79.3535 102.177 79.474 101.943 79.7149C101.715 79.9492 101.601 80.2747 101.601 80.6914C101.601 81.108 101.715 81.4401 101.943 81.6874C102.177 81.9283 102.46 82.0488 102.792 82.0488C103.124 82.0488 103.404 81.9283 103.632 81.6874C103.867 81.4466 103.984 81.1178 103.984 80.7012ZM109.899 82.0097V83.4257H109.049C108.444 83.4257 107.972 83.2792 107.633 82.9862C107.295 82.6868 107.125 82.2017 107.125 81.5312V79.3633H106.461V77.9766H107.125V76.6486H108.795V77.9766H109.889V79.3633H108.795V81.5507C108.795 81.7135 108.834 81.8307 108.912 81.9023C108.99 81.9739 109.121 82.0097 109.303 82.0097H109.899ZM115.965 80.6133C115.965 80.7695 115.956 80.9323 115.936 81.1015H112.157C112.183 81.4401 112.29 81.7005 112.479 81.8827C112.674 82.0585 112.912 82.1464 113.192 82.1464C113.609 82.1464 113.898 81.9706 114.061 81.6191H115.838C115.747 81.9771 115.581 82.2994 115.34 82.5858C115.106 82.8723 114.81 83.0969 114.452 83.2596C114.094 83.4224 113.693 83.5038 113.251 83.5038C112.717 83.5038 112.241 83.3899 111.825 83.162C111.408 82.9341 111.083 82.6086 110.848 82.1855C110.614 81.7623 110.497 81.2675 110.497 80.7012C110.497 80.1348 110.611 79.64 110.839 79.2168C111.073 78.7937 111.398 78.4682 111.815 78.2403C112.232 78.0125 112.71 77.8985 113.251 77.8985C113.778 77.8985 114.247 78.0092 114.657 78.2305C115.067 78.4519 115.386 78.7676 115.614 79.1778C115.848 79.5879 115.965 80.0664 115.965 80.6133ZM114.256 80.1738C114.256 79.8874 114.159 79.6595 113.963 79.4903C113.768 79.321 113.524 79.2364 113.231 79.2364C112.951 79.2364 112.713 79.3177 112.518 79.4805C112.329 79.6432 112.212 79.8744 112.167 80.1738H114.256ZM118.516 78.8848C118.711 78.5853 118.956 78.351 119.248 78.1817C119.541 78.0059 119.867 77.9181 120.225 77.9181V79.6856H119.766C119.349 79.6856 119.037 79.7767 118.829 79.959C118.62 80.1348 118.516 80.4473 118.516 80.8965V83.4257H116.846V77.9766H118.516V78.8848ZM121.863 77.4103C121.57 77.4103 121.329 77.3256 121.14 77.1564C120.958 76.9806 120.867 76.7658 120.867 76.5119C120.867 76.2514 120.958 76.0366 121.14 75.8673C121.329 75.6916 121.57 75.6037 121.863 75.6037C122.149 75.6037 122.384 75.6916 122.566 75.8673C122.755 76.0366 122.849 76.2514 122.849 76.5119C122.849 76.7658 122.755 76.9806 122.566 77.1564C122.384 77.3256 122.149 77.4103 121.863 77.4103ZM122.693 77.9766V83.4257H121.023V77.9766H122.693ZM123.571 80.6914C123.571 80.1315 123.675 79.64 123.884 79.2168C124.098 78.7937 124.388 78.4682 124.753 78.2403C125.117 78.0125 125.524 77.8985 125.973 77.8985C126.357 77.8985 126.693 77.9766 126.979 78.1329C127.272 78.2891 127.497 78.4942 127.653 78.7481V77.9766H129.323V83.4257H127.653V82.6542C127.49 82.9081 127.262 83.1132 126.969 83.2694C126.683 83.4257 126.348 83.5038 125.964 83.5038C125.521 83.5038 125.117 83.3899 124.753 83.162C124.388 82.9276 124.098 82.5989 123.884 82.1757C123.675 81.746 123.571 81.2513 123.571 80.6914ZM127.653 80.7012C127.653 80.2845 127.536 79.9557 127.301 79.7149C127.074 79.474 126.794 79.3535 126.462 79.3535C126.13 79.3535 125.846 79.474 125.612 79.7149C125.384 79.9492 125.27 80.2747 125.27 80.6914C125.27 81.108 125.384 81.4401 125.612 81.6874C125.846 81.9283 126.13 82.0488 126.462 82.0488C126.794 82.0488 127.074 81.9283 127.301 81.6874C127.536 81.4466 127.653 81.1178 127.653 80.7012ZM132.201 76.1994V83.4257H130.531V76.1994H132.201ZM137.961 83.494C137.459 83.494 137.01 83.4126 136.613 83.2499C136.216 83.0871 135.897 82.8463 135.656 82.5273C135.422 82.2083 135.298 81.8242 135.285 81.375H137.062C137.088 81.6289 137.176 81.8242 137.326 81.9609C137.476 82.0911 137.671 82.1562 137.912 82.1562C138.159 82.1562 138.355 82.1008 138.498 81.9902C138.641 81.873 138.713 81.7135 138.713 81.5117C138.713 81.3424 138.654 81.2024 138.537 81.0918C138.426 80.9811 138.286 80.8899 138.117 80.8183C137.954 80.7467 137.72 80.6653 137.414 80.5742C136.971 80.4375 136.61 80.3008 136.33 80.1641C136.05 80.0273 135.809 79.8255 135.607 79.5586C135.405 79.2917 135.305 78.9434 135.305 78.5137C135.305 77.8757 135.536 77.3777 135.998 77.0196C136.46 76.6551 137.062 76.4728 137.804 76.4728C138.56 76.4728 139.168 76.6551 139.631 77.0196C140.093 77.3777 140.34 77.879 140.373 78.5235H138.566C138.553 78.3022 138.472 78.1296 138.322 78.0059C138.172 77.8757 137.98 77.8106 137.746 77.8106C137.544 77.8106 137.381 77.866 137.258 77.9766C137.134 78.0808 137.072 78.2338 137.072 78.4356C137.072 78.657 137.176 78.8295 137.385 78.9532C137.593 79.0769 137.918 79.2103 138.361 79.3535C138.804 79.5033 139.162 79.6465 139.435 79.7832C139.715 79.9199 139.956 80.1185 140.158 80.3789C140.36 80.6393 140.461 80.9746 140.461 81.3847C140.461 81.7753 140.36 82.1301 140.158 82.4491C139.963 82.7681 139.676 83.022 139.299 83.2108C138.921 83.3996 138.475 83.494 137.961 83.494ZM144.838 77.9181C145.463 77.9181 145.964 78.1264 146.342 78.543C146.719 78.9532 146.908 79.5196 146.908 80.2422V83.4257H145.248V80.4668C145.248 80.1022 145.153 79.819 144.965 79.6172C144.776 79.4154 144.522 79.3145 144.203 79.3145C143.884 79.3145 143.63 79.4154 143.441 79.6172C143.253 79.819 143.158 80.1022 143.158 80.4668V83.4257H141.488V76.1994H143.158V78.709C143.327 78.4682 143.558 78.2761 143.851 78.1329C144.144 77.9897 144.473 77.9181 144.838 77.9181ZM153.205 80.6133C153.205 80.7695 153.195 80.9323 153.176 81.1015H149.396C149.422 81.4401 149.53 81.7005 149.719 81.8827C149.914 82.0585 150.152 82.1464 150.432 82.1464C150.848 82.1464 151.138 81.9706 151.301 81.6191H153.078C152.987 81.9771 152.821 82.2994 152.58 82.5858C152.346 82.8723 152.049 83.0969 151.691 83.2596C151.333 83.4224 150.933 83.5038 150.49 83.5038C149.956 83.5038 149.481 83.3899 149.064 83.162C148.648 82.9341 148.322 82.6086 148.088 82.1855C147.854 81.7623 147.736 81.2675 147.736 80.7012C147.736 80.1348 147.85 79.64 148.078 79.2168C148.312 78.7937 148.638 78.4682 149.055 78.2403C149.471 78.0125 149.95 77.8985 150.49 77.8985C151.017 77.8985 151.486 78.0092 151.896 78.2305C152.306 78.4519 152.625 78.7676 152.853 79.1778C153.088 79.5879 153.205 80.0664 153.205 80.6133ZM151.496 80.1738C151.496 79.8874 151.398 79.6595 151.203 79.4903C151.008 79.321 150.764 79.2364 150.471 79.2364C150.191 79.2364 149.953 79.3177 149.758 79.4805C149.569 79.6432 149.452 79.8744 149.406 80.1738H151.496ZM155.756 76.1994V83.4257H154.086V76.1994H155.756ZM158.636 76.1994V83.4257H156.966V76.1994H158.636Z" fill="#A2A2A2"/>
</svg>
