<svg width="248" height="161" viewBox="0 0 248 161" fill="none" xmlns="http://www.w3.org/2000/svg">
<rect x="94.7418" y="44.7574" width="57.7778" height="69.9844" rx="3.25509" fill="#7B7B7B" fill-opacity="0.44"/>
<rect x="13.3646" y="135.9" width="222.16" height="12.2066" fill="#7B7B7B" fill-opacity="0.44"/>
<rect x="13.7715" y="136.307" width="221.346" height="11.3928" stroke="#A2A2A2" stroke-opacity="0.42" stroke-width="0.813771"/>
<rect x="12.5509" y="11.3928" width="222.16" height="7.32394" fill="#7B7B7B" fill-opacity="0.44"/>
<rect x="12.5509" y="11.3928" width="222.973" height="137.527" rx="4.88263" stroke="#A2A2A2" stroke-width="3.25509"/>
<path d="M108.266 78.7774C108.266 79.1745 108.175 79.5391 107.993 79.8711C107.811 80.1966 107.531 80.4603 107.153 80.6621C106.776 80.8639 106.307 80.9648 105.747 80.9648H104.712V83.4257H103.042V76.5704H105.747C106.294 76.5704 106.756 76.6648 107.134 76.8536C107.511 77.0424 107.794 77.3028 107.983 77.6349C108.172 77.9669 108.266 78.3477 108.266 78.7774ZM105.62 79.6367C105.939 79.6367 106.177 79.5619 106.333 79.4121C106.489 79.2624 106.567 79.0508 106.567 78.7774C106.567 78.504 106.489 78.2924 106.333 78.1427C106.177 77.9929 105.939 77.9181 105.62 77.9181H104.712V79.6367H105.62ZM112.378 83.494C111.733 83.494 111.141 83.3443 110.601 83.0448C110.067 82.7453 109.64 82.3287 109.321 81.7949C109.009 81.2545 108.853 80.6491 108.853 79.9785C108.853 79.308 109.009 78.7058 109.321 78.172C109.64 77.6381 110.067 77.2215 110.601 76.922C111.141 76.6225 111.733 76.4728 112.378 76.4728C113.022 76.4728 113.611 76.6225 114.145 76.922C114.686 77.2215 115.109 77.6381 115.415 78.172C115.727 78.7058 115.884 79.308 115.884 79.9785C115.884 80.6491 115.727 81.2545 115.415 81.7949C115.102 82.3287 114.679 82.7453 114.145 83.0448C113.611 83.3443 113.022 83.494 112.378 83.494ZM112.378 81.9706C112.925 81.9706 113.361 81.7884 113.686 81.4238C114.018 81.0592 114.184 80.5775 114.184 79.9785C114.184 79.3731 114.018 78.8913 113.686 78.5333C113.361 78.1687 112.925 77.9864 112.378 77.9864C111.824 77.9864 111.382 78.1654 111.05 78.5235C110.724 78.8816 110.561 79.3666 110.561 79.9785C110.561 80.584 110.724 81.069 111.05 81.4335C111.382 81.7916 111.824 81.9706 112.378 81.9706ZM122.037 78.7774C122.037 79.1745 121.946 79.5391 121.764 79.8711C121.581 80.1966 121.301 80.4603 120.924 80.6621C120.546 80.8639 120.077 80.9648 119.518 80.9648H118.482V83.4257H116.813V76.5704H119.518C120.064 76.5704 120.527 76.6648 120.904 76.8536C121.282 77.0424 121.565 77.3028 121.754 77.6349C121.943 77.9669 122.037 78.3477 122.037 78.7774ZM119.391 79.6367C119.71 79.6367 119.947 79.5619 120.103 79.4121C120.26 79.2624 120.338 79.0508 120.338 78.7774C120.338 78.504 120.26 78.2924 120.103 78.1427C119.947 77.9929 119.71 77.9181 119.391 77.9181H118.482V79.6367H119.391ZM125.103 76.3263L124.908 81.0039H123.492L123.297 76.3263H125.103ZM124.225 83.5038C123.932 83.5038 123.691 83.4191 123.502 83.2499C123.32 83.0741 123.229 82.8593 123.229 82.6054C123.229 82.345 123.32 82.1269 123.502 81.9511C123.691 81.7753 123.932 81.6874 124.225 81.6874C124.511 81.6874 124.745 81.7753 124.928 81.9511C125.116 82.1269 125.211 82.345 125.211 82.6054C125.211 82.8593 125.116 83.0741 124.928 83.2499C124.745 83.4191 124.511 83.5038 124.225 83.5038ZM130.929 79.3047V80.6914H126.633V79.3047H130.929ZM133.235 77.4103C132.942 77.4103 132.701 77.3256 132.512 77.1564C132.33 76.9806 132.239 76.7658 132.239 76.5119C132.239 76.2514 132.33 76.0366 132.512 75.8673C132.701 75.6916 132.942 75.6037 133.235 75.6037C133.521 75.6037 133.756 75.6916 133.938 75.8673C134.127 76.0366 134.221 76.2514 134.221 76.5119C134.221 76.7658 134.127 76.9806 133.938 77.1564C133.756 77.3256 133.521 77.4103 133.235 77.4103ZM134.065 77.9766V83.4257H132.395V77.9766H134.065ZM137.492 83.5038C137.016 83.5038 136.593 83.4224 136.222 83.2596C135.851 83.0969 135.558 82.8755 135.343 82.5956C135.128 82.3092 135.008 81.9902 134.982 81.6386H136.632C136.652 81.8274 136.74 81.9804 136.896 82.0976C137.052 82.2148 137.244 82.2734 137.472 82.2734C137.68 82.2734 137.84 82.2343 137.951 82.1562C138.068 82.0715 138.126 81.9641 138.126 81.8339C138.126 81.6777 138.045 81.5637 137.882 81.4921C137.72 81.414 137.456 81.3294 137.091 81.2382C136.701 81.1471 136.375 81.0527 136.115 80.955C135.854 80.8509 135.63 80.6914 135.441 80.4766C135.252 80.2552 135.158 79.959 135.158 79.5879C135.158 79.2754 135.242 78.9922 135.412 78.7383C135.587 78.4779 135.841 78.2729 136.173 78.1231C136.512 77.9734 136.912 77.8985 137.375 77.8985C138.058 77.8985 138.595 78.0678 138.986 78.4063C139.383 78.7448 139.611 79.194 139.669 79.7539H138.126C138.1 79.5651 138.016 79.4154 137.873 79.3047C137.736 79.194 137.554 79.1387 137.326 79.1387C137.13 79.1387 136.981 79.1778 136.876 79.2559C136.772 79.3275 136.72 79.4284 136.72 79.5586C136.72 79.7149 136.802 79.832 136.964 79.9102C137.134 79.9883 137.394 80.0664 137.746 80.1445C138.149 80.2487 138.478 80.3529 138.732 80.457C138.986 80.5547 139.207 80.7174 139.396 80.9453C139.591 81.1666 139.692 81.4661 139.699 81.8437C139.699 82.1627 139.607 82.4491 139.425 82.703C139.249 82.9504 138.992 83.1457 138.654 83.2889C138.322 83.4322 137.934 83.5038 137.492 83.5038ZM144.07 77.9181C144.695 77.9181 145.196 78.1264 145.574 78.543C145.951 78.9532 146.14 79.5196 146.14 80.2422V83.4257H144.48V80.4668C144.48 80.1022 144.385 79.819 144.197 79.6172C144.008 79.4154 143.754 79.3145 143.435 79.3145C143.116 79.3145 142.862 79.4154 142.673 79.6172C142.485 79.819 142.39 80.1022 142.39 80.4668V83.4257H140.72V76.1994H142.39V78.709C142.559 78.4682 142.79 78.2761 143.083 78.1329C143.376 77.9897 143.705 77.9181 144.07 77.9181Z" fill="#A2A2A2"/>
</svg>
