<svg width="249" height="161" viewBox="0 0 249 161" fill="none" xmlns="http://www.w3.org/2000/svg">
<rect x="14.7715" y="12.8936" width="16.2754" height="135.9" fill="#7B7B7B" fill-opacity="0.44"/>
<rect x="13.144" y="12.8936" width="222.16" height="7.32394" fill="#7B7B7B" fill-opacity="0.44"/>
<rect x="13.5509" y="13.3005" width="221.346" height="6.51017" stroke="#A2A2A2" stroke-opacity="0.42" stroke-width="0.813771"/>
<rect x="13.144" y="12.0798" width="222.973" height="137.527" rx="4.88263" stroke="#A2A2A2" stroke-width="3.25509"/>
<path d="M97.6857 77.2575V81.3589C97.6857 81.769 97.7866 82.0848 97.9884 82.3061C98.1902 82.5275 98.4864 82.6381 98.877 82.6381C99.2676 82.6381 99.5671 82.5275 99.7754 82.3061C99.9838 82.0848 100.088 81.769 100.088 81.3589V77.2575H101.758V81.3491C101.758 81.9611 101.628 82.4786 101.367 82.9018C101.107 83.3249 100.755 83.6439 100.313 83.8588C99.8763 84.0736 99.3881 84.181 98.8477 84.181C98.3074 84.181 97.8224 84.0769 97.3927 83.8685C96.9695 83.6537 96.6343 83.3347 96.3869 82.9116C96.1395 82.4819 96.0158 81.9611 96.0158 81.3491V77.2575H97.6857ZM104.6 79.4351C104.756 79.1812 104.981 78.9762 105.274 78.8199C105.567 78.6637 105.902 78.5855 106.28 78.5855C106.729 78.5855 107.136 78.6995 107.501 78.9273C107.865 79.1552 108.152 79.4807 108.36 79.9039C108.575 80.327 108.682 80.8185 108.682 81.3784C108.682 81.9383 108.575 82.4331 108.36 82.8627C108.152 83.2859 107.865 83.6147 107.501 83.849C107.136 84.0769 106.729 84.1908 106.28 84.1908C105.896 84.1908 105.56 84.1159 105.274 83.9662C104.988 83.81 104.763 83.6049 104.6 83.351V84.1127H102.93V76.8864H104.6V79.4351ZM106.983 81.3784C106.983 80.9618 106.866 80.6362 106.631 80.4019C106.404 80.161 106.12 80.0406 105.782 80.0406C105.45 80.0406 105.167 80.161 104.932 80.4019C104.704 80.6428 104.59 80.9715 104.59 81.3882C104.59 81.8048 104.704 82.1336 104.932 82.3745C105.167 82.6153 105.45 82.7358 105.782 82.7358C106.114 82.7358 106.397 82.6153 106.631 82.3745C106.866 82.1271 106.983 81.7951 106.983 81.3784ZM114.939 78.6637V84.1127H113.269V83.3705C113.1 83.6114 112.869 83.8067 112.576 83.9564C112.289 84.0997 111.97 84.1713 111.619 84.1713C111.202 84.1713 110.834 84.0801 110.515 83.8978C110.196 83.709 109.949 83.4389 109.773 83.0873C109.597 82.7358 109.509 82.3224 109.509 81.8471V78.6637H111.169V81.6225C111.169 81.9871 111.264 82.2703 111.453 82.4721C111.641 82.6739 111.895 82.7748 112.214 82.7748C112.54 82.7748 112.797 82.6739 112.986 82.4721C113.175 82.2703 113.269 81.9871 113.269 81.6225V78.6637H114.939ZM119.458 78.6051C120.096 78.6051 120.604 78.8134 120.982 79.23C121.366 79.6402 121.558 80.2066 121.558 80.9292V84.1127H119.898V81.1538C119.898 80.7892 119.803 80.506 119.615 80.3042C119.426 80.1024 119.172 80.0015 118.853 80.0015C118.534 80.0015 118.28 80.1024 118.091 80.3042C117.903 80.506 117.808 80.7892 117.808 81.1538V84.1127H116.138V78.6637H117.808V79.3863C117.977 79.1454 118.205 78.9566 118.492 78.8199C118.778 78.6767 119.1 78.6051 119.458 78.6051ZM125.755 82.6967V84.1127H124.906C124.3 84.1127 123.828 83.9662 123.49 83.6732C123.151 83.3738 122.982 82.8888 122.982 82.2182V80.0503H122.318V78.6637H122.982V77.3356H124.652V78.6637H125.746V80.0503H124.652V82.2377C124.652 82.4005 124.691 82.5177 124.769 82.5893C124.847 82.6609 124.977 82.6967 125.16 82.6967H125.755ZM132.066 78.6637V84.1127H130.396V83.3705C130.227 83.6114 129.996 83.8067 129.703 83.9564C129.417 84.0997 129.098 84.1713 128.746 84.1713C128.329 84.1713 127.961 84.0801 127.643 83.8978C127.324 83.709 127.076 83.4389 126.9 83.0873C126.725 82.7358 126.637 82.3224 126.637 81.8471V78.6637H128.297V81.6225C128.297 81.9871 128.391 82.2703 128.58 82.4721C128.769 82.6739 129.023 82.7748 129.342 82.7748C129.667 82.7748 129.924 82.6739 130.113 82.4721C130.302 82.2703 130.396 81.9871 130.396 81.6225V78.6637H132.066ZM137.465 79.9917V81.3784H133.168V79.9917H137.465ZM139.77 78.0973C139.477 78.0973 139.236 78.0126 139.047 77.8434C138.865 77.6676 138.774 77.4528 138.774 77.1989C138.774 76.9385 138.865 76.7236 139.047 76.5544C139.236 76.3786 139.477 76.2907 139.77 76.2907C140.056 76.2907 140.291 76.3786 140.473 76.5544C140.662 76.7236 140.756 76.9385 140.756 77.1989C140.756 77.4528 140.662 77.6676 140.473 77.8434C140.291 78.0126 140.056 78.0973 139.77 78.0973ZM140.6 78.6637V84.1127H138.93V78.6637H140.6ZM144.027 84.1908C143.552 84.1908 143.129 84.1094 142.757 83.9467C142.386 83.7839 142.093 83.5626 141.879 83.2826C141.664 82.9962 141.543 82.6772 141.517 82.3256H143.168C143.187 82.5144 143.275 82.6674 143.431 82.7846C143.587 82.9018 143.78 82.9604 144.007 82.9604C144.216 82.9604 144.375 82.9213 144.486 82.8432C144.603 82.7586 144.662 82.6511 144.662 82.5209C144.662 82.3647 144.58 82.2508 144.418 82.1792C144.255 82.101 143.991 82.0164 143.627 81.9253C143.236 81.8341 142.91 81.7397 142.65 81.6421C142.39 81.5379 142.165 81.3784 141.976 81.1636C141.787 80.9422 141.693 80.646 141.693 80.2749C141.693 79.9624 141.778 79.6793 141.947 79.4254C142.123 79.1649 142.377 78.9599 142.709 78.8101C143.047 78.6604 143.448 78.5855 143.91 78.5855C144.593 78.5855 145.13 78.7548 145.521 79.0933C145.918 79.4319 146.146 79.8811 146.205 80.4409H144.662C144.636 80.2521 144.551 80.1024 144.408 79.9917C144.271 79.8811 144.089 79.8257 143.861 79.8257C143.666 79.8257 143.516 79.8648 143.412 79.9429C143.308 80.0145 143.255 80.1154 143.255 80.2456C143.255 80.4019 143.337 80.5191 143.5 80.5972C143.669 80.6753 143.929 80.7534 144.281 80.8316C144.684 80.9357 145.013 81.0399 145.267 81.144C145.521 81.2417 145.742 81.4044 145.931 81.6323C146.126 81.8536 146.227 82.1531 146.234 82.5307C146.234 82.8497 146.143 83.1362 145.96 83.39C145.785 83.6374 145.528 83.8327 145.189 83.976C144.857 84.1192 144.47 84.1908 144.027 84.1908ZM150.605 78.6051C151.23 78.6051 151.731 78.8134 152.109 79.23C152.486 79.6402 152.675 80.2066 152.675 80.9292V84.1127H151.015V81.1538C151.015 80.7892 150.921 80.506 150.732 80.3042C150.543 80.1024 150.289 80.0015 149.97 80.0015C149.651 80.0015 149.397 80.1024 149.209 80.3042C149.02 80.506 148.925 80.7892 148.925 81.1538V84.1127H147.255V76.8864H148.925V79.3961C149.095 79.1552 149.326 78.9631 149.619 78.8199C149.912 78.6767 150.24 78.6051 150.605 78.6051Z" fill="#A2A2A2"/>
</svg>
