<svg width="304" height="197" viewBox="0 0 304 197" fill="none" xmlns="http://www.w3.org/2000/svg">
<rect x="13" y="168" width="275" height="14" rx="3" fill="#7B7B7B"/>
<rect x="15" y="14" width="274" height="169" rx="6" stroke="white" stroke-width="4"/>
<rect x="105" y="48" width="94" height="115" rx="5" fill="#7B7B7B"/>
<path d="M134.563 93.576L132.367 102H129.883L128.539 96.456L127.147 102H124.663L122.527 93.576H124.723L125.935 99.708L127.435 93.576H129.691L131.131 99.708L132.355 93.576H134.563ZM136.624 94.608C136.264 94.608 135.968 94.504 135.736 94.296C135.512 94.08 135.4 93.816 135.4 93.504C135.4 93.184 135.512 92.92 135.736 92.712C135.968 92.496 136.264 92.388 136.624 92.388C136.976 92.388 137.264 92.496 137.488 92.712C137.72 92.92 137.836 93.184 137.836 93.504C137.836 93.816 137.72 94.08 137.488 94.296C137.264 94.504 136.976 94.608 136.624 94.608ZM137.644 95.304V102H135.592V95.304H137.644ZM143.211 95.232C143.995 95.232 144.619 95.488 145.083 96C145.555 96.504 145.791 97.2 145.791 98.088V102H143.751V98.364C143.751 97.916 143.635 97.568 143.403 97.32C143.171 97.072 142.859 96.948 142.467 96.948C142.075 96.948 141.763 97.072 141.531 97.32C141.299 97.568 141.183 97.916 141.183 98.364V102H139.131V95.304H141.183V96.192C141.391 95.896 141.671 95.664 142.023 95.496C142.375 95.32 142.771 95.232 143.211 95.232ZM146.797 95.148V93.24H150.121V102H147.985V95.148H146.797ZM151.308 95.148V93.24H154.632V102H152.496V95.148H151.308ZM161.4 96.936V98.64H156.12V96.936H161.4ZM164.233 94.608C163.873 94.608 163.577 94.504 163.345 94.296C163.121 94.08 163.009 93.816 163.009 93.504C163.009 93.184 163.121 92.92 163.345 92.712C163.577 92.496 163.873 92.388 164.233 92.388C164.585 92.388 164.873 92.496 165.097 92.712C165.329 92.92 165.445 93.184 165.445 93.504C165.445 93.816 165.329 94.08 165.097 94.296C164.873 94.504 164.585 94.608 164.233 94.608ZM165.253 95.304V102H163.201V95.304H165.253ZM169.464 102.096C168.88 102.096 168.36 101.996 167.904 101.796C167.448 101.596 167.088 101.324 166.824 100.98C166.56 100.628 166.412 100.236 166.38 99.804H168.408C168.432 100.036 168.54 100.224 168.732 100.368C168.924 100.512 169.16 100.584 169.44 100.584C169.696 100.584 169.892 100.536 170.028 100.44C170.172 100.336 170.244 100.204 170.244 100.044C170.244 99.852 170.144 99.712 169.944 99.624C169.744 99.528 169.42 99.424 168.972 99.312C168.492 99.2 168.092 99.084 167.772 98.964C167.452 98.836 167.176 98.64 166.944 98.376C166.712 98.104 166.596 97.74 166.596 97.284C166.596 96.9 166.7 96.552 166.908 96.24C167.124 95.92 167.436 95.668 167.844 95.484C168.26 95.3 168.752 95.208 169.32 95.208C170.16 95.208 170.82 95.416 171.3 95.832C171.788 96.248 172.068 96.8 172.14 97.488H170.244C170.212 97.256 170.108 97.072 169.932 96.936C169.764 96.8 169.54 96.732 169.26 96.732C169.02 96.732 168.836 96.78 168.708 96.876C168.58 96.964 168.516 97.088 168.516 97.248C168.516 97.44 168.616 97.584 168.816 97.68C169.024 97.776 169.344 97.872 169.776 97.968C170.272 98.096 170.676 98.224 170.988 98.352C171.3 98.472 171.572 98.672 171.804 98.952C172.044 99.224 172.168 99.592 172.176 100.056C172.176 100.448 172.064 100.8 171.84 101.112C171.624 101.416 171.308 101.656 170.892 101.832C170.484 102.008 170.008 102.096 169.464 102.096ZM177.548 95.232C178.316 95.232 178.932 95.488 179.396 96C179.86 96.504 180.092 97.2 180.092 98.088V102H178.052V98.364C178.052 97.916 177.936 97.568 177.704 97.32C177.472 97.072 177.16 96.948 176.768 96.948C176.376 96.948 176.064 97.072 175.832 97.32C175.6 97.568 175.484 97.916 175.484 98.364V102H173.432V93.12H175.484V96.204C175.692 95.908 175.976 95.672 176.336 95.496C176.696 95.32 177.1 95.232 177.548 95.232Z" fill="white"/>
</svg>
