<svg width="249" height="162" viewBox="0 0 249 162" fill="none" xmlns="http://www.w3.org/2000/svg">
<rect x="11.5164" y="137.557" width="223.787" height="11.3928" rx="2.44131" fill="#7B7B7B" fill-opacity="0.44"/>
<rect x="13.144" y="12.2363" width="222.973" height="137.527" rx="4.88263" stroke="#A2A2A2" stroke-width="3.25509"/>
<rect x="86.3834" y="39.9045" width="76.4945" height="93.5837" rx="4.06886" fill="#7B7B7B" fill-opacity="0.44"/>
<path d="M110.434 77.414L108.647 84.2692H106.626L105.532 79.7576L104.399 84.2692H102.378L100.64 77.414H102.427L103.413 82.404L104.634 77.414H106.47L107.641 82.404L108.638 77.414H110.434ZM112.112 78.2538C111.819 78.2538 111.578 78.1691 111.389 77.9999C111.207 77.8241 111.116 77.6093 111.116 77.3554C111.116 77.095 111.207 76.8801 111.389 76.7109C111.578 76.5351 111.819 76.4472 112.112 76.4472C112.398 76.4472 112.632 76.5351 112.815 76.7109C113.003 76.8801 113.098 77.095 113.098 77.3554C113.098 77.6093 113.003 77.8241 112.815 77.9999C112.632 78.1691 112.398 78.2538 112.112 78.2538ZM112.942 78.8202V84.2692H111.272V78.8202H112.942ZM117.472 78.7616C118.11 78.7616 118.618 78.9699 118.995 79.3865C119.379 79.7967 119.571 80.3631 119.571 81.0857V84.2692H117.911V81.3103C117.911 80.9457 117.817 80.6625 117.628 80.4607C117.439 80.2589 117.186 80.158 116.867 80.158C116.548 80.158 116.294 80.2589 116.105 80.4607C115.916 80.6625 115.822 80.9457 115.822 81.3103V84.2692H114.152V78.8202H115.822V79.5428C115.991 79.3019 116.219 79.1131 116.505 78.9764C116.792 78.8332 117.114 78.7616 117.472 78.7616ZM120.39 78.6932V77.1405H123.095V84.2692H121.357V78.6932H120.39ZM124.062 78.6932V77.1405H126.767V84.2692H125.028V78.6932H124.062ZM132.274 80.1482V81.5349H127.977V80.1482H132.274ZM134.579 78.2538C134.286 78.2538 134.045 78.1691 133.857 77.9999C133.674 77.8241 133.583 77.6093 133.583 77.3554C133.583 77.095 133.674 76.8801 133.857 76.7109C134.045 76.5351 134.286 76.4472 134.579 76.4472C134.866 76.4472 135.1 76.5351 135.282 76.7109C135.471 76.8801 135.566 77.095 135.566 77.3554C135.566 77.6093 135.471 77.8241 135.282 77.9999C135.1 78.1691 134.866 78.2538 134.579 78.2538ZM135.409 78.8202V84.2692H133.739V78.8202H135.409ZM138.836 84.3473C138.361 84.3473 137.938 84.2659 137.567 84.1032C137.196 83.9404 136.903 83.7191 136.688 83.4391C136.473 83.1527 136.353 82.8337 136.327 82.4821H137.977C137.996 82.6709 138.084 82.8239 138.241 82.9411C138.397 83.0583 138.589 83.1169 138.817 83.1169C139.025 83.1169 139.184 83.0778 139.295 82.9997C139.412 82.915 139.471 82.8076 139.471 82.6774C139.471 82.5212 139.39 82.4073 139.227 82.3356C139.064 82.2575 138.8 82.1729 138.436 82.0817C138.045 81.9906 137.72 81.8962 137.459 81.7986C137.199 81.6944 136.974 81.5349 136.785 81.3201C136.597 81.0987 136.502 80.8025 136.502 80.4314C136.502 80.1189 136.587 79.8357 136.756 79.5818C136.932 79.3214 137.186 79.1164 137.518 78.9666C137.856 78.8169 138.257 78.742 138.719 78.742C139.403 78.742 139.94 78.9113 140.33 79.2498C140.727 79.5884 140.955 80.0376 141.014 80.5974H139.471C139.445 80.4086 139.36 80.2589 139.217 80.1482C139.08 80.0376 138.898 79.9822 138.67 79.9822C138.475 79.9822 138.325 80.0213 138.221 80.0994C138.117 80.171 138.065 80.2719 138.065 80.4021C138.065 80.5584 138.146 80.6756 138.309 80.7537C138.478 80.8318 138.739 80.9099 139.09 80.988C139.494 81.0922 139.822 81.1964 140.076 81.3005C140.33 81.3982 140.552 81.5609 140.74 81.7888C140.936 82.0101 141.037 82.3096 141.043 82.6872C141.043 83.0062 140.952 83.2926 140.77 83.5465C140.594 83.7939 140.337 83.9892 139.998 84.1325C139.666 84.2757 139.279 84.3473 138.836 84.3473ZM145.414 78.7616C146.039 78.7616 146.541 78.9699 146.918 79.3865C147.296 79.7967 147.484 80.3631 147.484 81.0857V84.2692H145.824V81.3103C145.824 80.9457 145.73 80.6625 145.541 80.4607C145.352 80.2589 145.098 80.158 144.78 80.158C144.461 80.158 144.207 80.2589 144.018 80.4607C143.829 80.6625 143.735 80.9457 143.735 81.3103V84.2692H142.065V77.0429H143.735V79.5525C143.904 79.3117 144.135 79.1196 144.428 78.9764C144.721 78.8332 145.05 78.7616 145.414 78.7616Z" fill="#A2A2A2"/>
</svg>
