<svg width="248" height="161" viewBox="0 0 248 161" fill="none" xmlns="http://www.w3.org/2000/svg">
<rect x="13.8341" y="139.028" width="220.532" height="9.76526" fill="#7B7B7B" fill-opacity="0.44"/>
<rect x="12.2066" y="12.0798" width="222.973" height="137.527" rx="4.88263" stroke="#A2A2A2" stroke-width="3.25509"/>
<path d="M107.19 77.2575L105.403 84.1127H103.381L102.288 79.6011L101.155 84.1127H99.1336L97.3954 77.2575H99.1824L100.169 82.2475L101.389 77.2575H103.225L104.397 82.2475L105.393 77.2575H107.19ZM108.867 78.0973C108.574 78.0973 108.333 78.0126 108.145 77.8434C107.962 77.6676 107.871 77.4528 107.871 77.1989C107.871 76.9385 107.962 76.7236 108.145 76.5544C108.333 76.3786 108.574 76.2907 108.867 76.2907C109.154 76.2907 109.388 76.3786 109.57 76.5544C109.759 76.7236 109.853 76.9385 109.853 77.1989C109.853 77.4528 109.759 77.6676 109.57 77.8434C109.388 78.0126 109.154 78.0973 108.867 78.0973ZM109.697 78.6637V84.1127H108.027V78.6637H109.697ZM114.228 78.6051C114.866 78.6051 115.373 78.8134 115.751 79.23C116.135 79.6402 116.327 80.2066 116.327 80.9292V84.1127H114.667V81.1538C114.667 80.7892 114.573 80.506 114.384 80.3042C114.195 80.1024 113.941 80.0015 113.622 80.0015C113.303 80.0015 113.049 80.1024 112.86 80.3042C112.672 80.506 112.577 80.7892 112.577 81.1538V84.1127H110.907V78.6637H112.577V79.3863C112.746 79.1454 112.974 78.9566 113.261 78.8199C113.547 78.6767 113.869 78.6051 114.228 78.6051ZM121.687 84.1127L120.29 82.0131L119.06 84.1127H117.165L119.362 80.6265L117.116 77.2575H119.06L120.437 79.3277L121.647 77.2575H123.542L121.364 80.7144L123.63 84.1127H121.687ZM129.693 79.4644C129.693 79.8615 129.601 80.2261 129.419 80.5581C129.237 80.8836 128.957 81.1473 128.579 81.3491C128.202 81.5509 127.733 81.6518 127.173 81.6518H126.138V84.1127H124.468V77.2575H127.173C127.72 77.2575 128.182 77.3519 128.56 77.5407C128.937 77.7295 129.221 77.9899 129.409 78.3219C129.598 78.6539 129.693 79.0347 129.693 79.4644ZM127.046 80.3238C127.365 80.3238 127.603 80.2489 127.759 80.0992C127.915 79.9494 127.993 79.7378 127.993 79.4644C127.993 79.191 127.915 78.9794 127.759 78.8297C127.603 78.6799 127.365 78.6051 127.046 78.6051H126.138V80.3238H127.046ZM134.761 79.9917V81.3784H130.464V79.9917H134.761ZM137.066 78.0973C136.773 78.0973 136.532 78.0126 136.344 77.8434C136.161 77.6676 136.07 77.4528 136.07 77.1989C136.07 76.9385 136.161 76.7236 136.344 76.5544C136.532 76.3786 136.773 76.2907 137.066 76.2907C137.353 76.2907 137.587 76.3786 137.769 76.5544C137.958 76.7236 138.053 76.9385 138.053 77.1989C138.053 77.4528 137.958 77.6676 137.769 77.8434C137.587 78.0126 137.353 78.0973 137.066 78.0973ZM137.896 78.6637V84.1127H136.226V78.6637H137.896ZM141.323 84.1908C140.848 84.1908 140.425 84.1094 140.054 83.9467C139.683 83.7839 139.39 83.5626 139.175 83.2826C138.96 82.9962 138.84 82.6772 138.813 82.3256H140.464C140.483 82.5144 140.571 82.6674 140.727 82.7846C140.884 82.9018 141.076 82.9604 141.304 82.9604C141.512 82.9604 141.671 82.9213 141.782 82.8432C141.899 82.7586 141.958 82.6511 141.958 82.5209C141.958 82.3647 141.877 82.2508 141.714 82.1792C141.551 82.101 141.287 82.0164 140.923 81.9253C140.532 81.8341 140.207 81.7397 139.946 81.6421C139.686 81.5379 139.461 81.3784 139.272 81.1636C139.084 80.9422 138.989 80.646 138.989 80.2749C138.989 79.9624 139.074 79.6793 139.243 79.4254C139.419 79.1649 139.673 78.9599 140.005 78.8101C140.343 78.6604 140.744 78.5855 141.206 78.5855C141.89 78.5855 142.427 78.7548 142.817 79.0933C143.214 79.4319 143.442 79.8811 143.501 80.4409H141.958C141.932 80.2521 141.847 80.1024 141.704 79.9917C141.567 79.8811 141.385 79.8257 141.157 79.8257C140.962 79.8257 140.812 79.8648 140.708 79.9429C140.604 80.0145 140.552 80.1154 140.552 80.2456C140.552 80.4019 140.633 80.5191 140.796 80.5972C140.965 80.6753 141.226 80.7534 141.577 80.8316C141.981 80.9357 142.309 81.0399 142.563 81.144C142.817 81.2417 143.039 81.4044 143.227 81.6323C143.423 81.8536 143.524 82.1531 143.53 82.5307C143.53 82.8497 143.439 83.1362 143.257 83.39C143.081 83.6374 142.824 83.8327 142.485 83.976C142.153 84.1192 141.766 84.1908 141.323 84.1908ZM147.901 78.6051C148.526 78.6051 149.027 78.8134 149.405 79.23C149.783 79.6402 149.971 80.2066 149.971 80.9292V84.1127H148.311V81.1538C148.311 80.7892 148.217 80.506 148.028 80.3042C147.839 80.1024 147.585 80.0015 147.266 80.0015C146.947 80.0015 146.694 80.1024 146.505 80.3042C146.316 80.506 146.222 80.7892 146.222 81.1538V84.1127H144.552V76.8864H146.222V79.3961C146.391 79.1552 146.622 78.9631 146.915 78.8199C147.208 78.6767 147.537 78.6051 147.901 78.6051Z" fill="#A2A2A2"/>
<rect x="16.2754" y="68.23" width="38.2473" height="68.3568" rx="1.62754" fill="#7B7B7B" fill-opacity="0.44"/>
</svg>
