<svg width="304" height="197" viewBox="0 0 304 197" fill="none" xmlns="http://www.w3.org/2000/svg">
<path d="M247 59C247 56.7909 248.791 55 251 55H286.5C288.709 55 290.5 56.7909 290.5 59V146C290.5 148.209 288.709 150 286.5 150H251C248.791 150 247 148.209 247 146V59Z" fill="#7B7B7B"/>
<path d="M14 59C14 56.7909 15.7909 55 18 55H53.5C55.7091 55 57.5 56.7909 57.5 59V146C57.5 148.209 55.7091 150 53.5 150H18C15.7909 150 14 148.209 14 146V59Z" fill="#7B7B7B"/>
<rect x="15" y="14" width="274" height="169" rx="6" stroke="white" stroke-width="4"/>
<rect x="65" y="50" width="174" height="106" rx="4" fill="#7B7B7B"/>
<path d="M136.354 96.24C136.202 95.96 135.982 95.748 135.694 95.604C135.414 95.452 135.082 95.376 134.698 95.376C134.034 95.376 133.502 95.596 133.102 96.036C132.702 96.468 132.502 97.048 132.502 97.776C132.502 98.552 132.71 99.16 133.126 99.6C133.55 100.032 134.13 100.248 134.866 100.248C135.37 100.248 135.794 100.12 136.138 99.864C136.49 99.608 136.746 99.24 136.906 98.76H134.302V97.248H138.766V99.156C138.614 99.668 138.354 100.144 137.986 100.584C137.626 101.024 137.166 101.38 136.606 101.652C136.046 101.924 135.414 102.06 134.71 102.06C133.878 102.06 133.134 101.88 132.478 101.52C131.83 101.152 131.322 100.644 130.954 99.996C130.594 99.348 130.414 98.608 130.414 97.776C130.414 96.944 130.594 96.204 130.954 95.556C131.322 94.9 131.83 94.392 132.478 94.032C133.126 93.664 133.866 93.48 134.698 93.48C135.706 93.48 136.554 93.724 137.242 94.212C137.938 94.7 138.398 95.376 138.622 96.24H136.354ZM143.982 95.232C144.766 95.232 145.39 95.488 145.854 96C146.326 96.504 146.562 97.2 146.562 98.088V102H144.522V98.364C144.522 97.916 144.406 97.568 144.174 97.32C143.942 97.072 143.63 96.948 143.238 96.948C142.846 96.948 142.534 97.072 142.302 97.32C142.07 97.568 141.954 97.916 141.954 98.364V102H139.902V95.304H141.954V96.192C142.162 95.896 142.442 95.664 142.794 95.496C143.146 95.32 143.542 95.232 143.982 95.232ZM151.036 102.096C150.38 102.096 149.788 101.956 149.26 101.676C148.74 101.396 148.328 100.996 148.024 100.476C147.728 99.956 147.58 99.348 147.58 98.652C147.58 97.964 147.732 97.36 148.036 96.84C148.34 96.312 148.756 95.908 149.284 95.628C149.812 95.348 150.404 95.208 151.06 95.208C151.716 95.208 152.308 95.348 152.836 95.628C153.364 95.908 153.78 96.312 154.084 96.84C154.388 97.36 154.54 97.964 154.54 98.652C154.54 99.34 154.384 99.948 154.072 100.476C153.768 100.996 153.348 101.396 152.812 101.676C152.284 101.956 151.692 102.096 151.036 102.096ZM151.036 100.32C151.428 100.32 151.76 100.176 152.032 99.888C152.312 99.6 152.452 99.188 152.452 98.652C152.452 98.116 152.316 97.704 152.044 97.416C151.78 97.128 151.452 96.984 151.06 96.984C150.66 96.984 150.328 97.128 150.064 97.416C149.8 97.696 149.668 98.108 149.668 98.652C149.668 99.188 149.796 99.6 150.052 99.888C150.316 100.176 150.644 100.32 151.036 100.32ZM164.173 95.232C165.005 95.232 165.665 95.484 166.153 95.988C166.649 96.492 166.897 97.192 166.897 98.088V102H164.857V98.364C164.857 97.932 164.741 97.6 164.509 97.368C164.285 97.128 163.973 97.008 163.573 97.008C163.173 97.008 162.857 97.128 162.625 97.368C162.401 97.6 162.289 97.932 162.289 98.364V102H160.249V98.364C160.249 97.932 160.133 97.6 159.901 97.368C159.677 97.128 159.365 97.008 158.965 97.008C158.565 97.008 158.249 97.128 158.017 97.368C157.793 97.6 157.681 97.932 157.681 98.364V102H155.629V95.304H157.681V96.144C157.889 95.864 158.161 95.644 158.497 95.484C158.833 95.316 159.213 95.232 159.637 95.232C160.141 95.232 160.589 95.34 160.981 95.556C161.381 95.772 161.693 96.08 161.917 96.48C162.149 96.112 162.465 95.812 162.865 95.58C163.265 95.348 163.701 95.232 164.173 95.232ZM174.644 98.544C174.644 98.736 174.632 98.936 174.608 99.144H169.964C169.996 99.56 170.128 99.88 170.36 100.104C170.6 100.32 170.892 100.428 171.236 100.428C171.748 100.428 172.104 100.212 172.304 99.78H174.488C174.376 100.22 174.172 100.616 173.876 100.968C173.588 101.32 173.224 101.596 172.784 101.796C172.344 101.996 171.852 102.096 171.308 102.096C170.652 102.096 170.068 101.956 169.556 101.676C169.044 101.396 168.644 100.996 168.356 100.476C168.068 99.956 167.924 99.348 167.924 98.652C167.924 97.956 168.064 97.348 168.344 96.828C168.632 96.308 169.032 95.908 169.544 95.628C170.056 95.348 170.644 95.208 171.308 95.208C171.956 95.208 172.532 95.344 173.036 95.616C173.54 95.888 173.932 96.276 174.212 96.78C174.5 97.284 174.644 97.872 174.644 98.544ZM172.544 98.004C172.544 97.652 172.424 97.372 172.184 97.164C171.944 96.956 171.644 96.852 171.284 96.852C170.94 96.852 170.648 96.952 170.408 97.152C170.176 97.352 170.032 97.636 169.976 98.004H172.544Z" fill="white"/>
<rect x="88" y="160" width="129" height="19" rx="9.5" fill="#7B7B7B"/>
<rect x="114" y="27" width="36" height="20" rx="1" fill="#7B7B7B"/>
<rect x="152" y="27" width="36" height="20" rx="1" fill="#7B7B7B"/>
</svg>
