<svg width="304" height="197" viewBox="0 0 304 197" fill="none" xmlns="http://www.w3.org/2000/svg">
<path d="M14 16H29V182H14V16Z" fill="#7B7B7B"/>
<rect x="14" y="16" width="274" height="8" rx="1" fill="#676767"/>
<rect x="15" y="14" width="274" height="169" rx="6" stroke="white" stroke-width="4"/>
<rect x="32" y="27" width="249" height="150" rx="1" fill="#7B7B7B"/>
<path d="M120.649 93.576V102H118.597V96.948L116.713 102H115.057L113.161 96.936V102H111.109V93.576H113.533L115.897 99.408L118.237 93.576H120.649ZM121.717 98.64C121.717 97.952 121.845 97.348 122.101 96.828C122.365 96.308 122.721 95.908 123.169 95.628C123.617 95.348 124.117 95.208 124.669 95.208C125.141 95.208 125.553 95.304 125.905 95.496C126.265 95.688 126.541 95.94 126.733 96.252V95.304H128.785V102H126.733V101.052C126.533 101.364 126.253 101.616 125.893 101.808C125.541 102 125.129 102.096 124.657 102.096C124.113 102.096 123.617 101.956 123.169 101.676C122.721 101.388 122.365 100.984 122.101 100.464C121.845 99.936 121.717 99.328 121.717 98.64ZM126.733 98.652C126.733 98.14 126.589 97.736 126.301 97.44C126.021 97.144 125.677 96.996 125.269 96.996C124.861 96.996 124.513 97.144 124.225 97.44C123.945 97.728 123.805 98.128 123.805 98.64C123.805 99.152 123.945 99.56 124.225 99.864C124.513 100.16 124.861 100.308 125.269 100.308C125.677 100.308 126.021 100.16 126.301 99.864C126.589 99.568 126.733 99.164 126.733 98.652ZM134.001 100.26V102H132.957C132.213 102 131.633 101.82 131.217 101.46C130.801 101.092 130.593 100.496 130.593 99.672V97.008H129.777V95.304H130.593V93.672H132.645V95.304H133.989V97.008H132.645V99.696C132.645 99.896 132.693 100.04 132.789 100.128C132.885 100.216 133.045 100.26 133.269 100.26H134.001ZM141.456 98.544C141.456 98.736 141.444 98.936 141.42 99.144H136.776C136.808 99.56 136.94 99.88 137.172 100.104C137.412 100.32 137.704 100.428 138.048 100.428C138.56 100.428 138.916 100.212 139.116 99.78H141.3C141.188 100.22 140.984 100.616 140.688 100.968C140.4 101.32 140.036 101.596 139.596 101.796C139.156 101.996 138.664 102.096 138.12 102.096C137.464 102.096 136.88 101.956 136.368 101.676C135.856 101.396 135.456 100.996 135.168 100.476C134.88 99.956 134.736 99.348 134.736 98.652C134.736 97.956 134.876 97.348 135.156 96.828C135.444 96.308 135.844 95.908 136.356 95.628C136.868 95.348 137.456 95.208 138.12 95.208C138.768 95.208 139.344 95.344 139.848 95.616C140.352 95.888 140.744 96.276 141.024 96.78C141.312 97.284 141.456 97.872 141.456 98.544ZM139.356 98.004C139.356 97.652 139.236 97.372 138.996 97.164C138.756 96.956 138.456 96.852 138.096 96.852C137.752 96.852 137.46 96.952 137.22 97.152C136.988 97.352 136.844 97.636 136.788 98.004H139.356ZM144.591 96.42C144.831 96.052 145.131 95.764 145.491 95.556C145.851 95.34 146.251 95.232 146.691 95.232V97.404H146.127C145.615 97.404 145.231 97.516 144.975 97.74C144.719 97.956 144.591 98.34 144.591 98.892V102H142.539V95.304H144.591V96.42ZM148.704 94.608C148.344 94.608 148.048 94.504 147.816 94.296C147.592 94.08 147.48 93.816 147.48 93.504C147.48 93.184 147.592 92.92 147.816 92.712C148.048 92.496 148.344 92.388 148.704 92.388C149.056 92.388 149.344 92.496 149.568 92.712C149.8 92.92 149.916 93.184 149.916 93.504C149.916 93.816 149.8 94.08 149.568 94.296C149.344 94.504 149.056 94.608 148.704 94.608ZM149.724 95.304V102H147.672V95.304H149.724ZM150.803 98.64C150.803 97.952 150.931 97.348 151.187 96.828C151.451 96.308 151.807 95.908 152.255 95.628C152.703 95.348 153.203 95.208 153.755 95.208C154.227 95.208 154.639 95.304 154.991 95.496C155.351 95.688 155.627 95.94 155.819 96.252V95.304H157.871V102H155.819V101.052C155.619 101.364 155.339 101.616 154.979 101.808C154.627 102 154.215 102.096 153.743 102.096C153.199 102.096 152.703 101.956 152.255 101.676C151.807 101.388 151.451 100.984 151.187 100.464C150.931 99.936 150.803 99.328 150.803 98.64ZM155.819 98.652C155.819 98.14 155.675 97.736 155.387 97.44C155.107 97.144 154.763 96.996 154.355 96.996C153.947 96.996 153.599 97.144 153.311 97.44C153.031 97.728 152.891 98.128 152.891 98.64C152.891 99.152 153.031 99.56 153.311 99.864C153.599 100.16 153.947 100.308 154.355 100.308C154.763 100.308 155.107 100.16 155.387 99.864C155.675 99.568 155.819 99.164 155.819 98.652ZM161.407 93.12V102H159.355V93.12H161.407ZM168.485 102.084C167.869 102.084 167.317 101.984 166.829 101.784C166.341 101.584 165.949 101.288 165.653 100.896C165.365 100.504 165.213 100.032 165.197 99.48H167.381C167.413 99.792 167.521 100.032 167.705 100.2C167.889 100.36 168.129 100.44 168.425 100.44C168.729 100.44 168.969 100.372 169.145 100.236C169.321 100.092 169.409 99.896 169.409 99.648C169.409 99.44 169.337 99.268 169.193 99.132C169.057 98.996 168.885 98.884 168.677 98.796C168.477 98.708 168.189 98.608 167.813 98.496C167.269 98.328 166.825 98.16 166.481 97.992C166.137 97.824 165.841 97.576 165.593 97.248C165.345 96.92 165.221 96.492 165.221 95.964C165.221 95.18 165.505 94.568 166.073 94.128C166.641 93.68 167.381 93.456 168.293 93.456C169.221 93.456 169.969 93.68 170.537 94.128C171.105 94.568 171.409 95.184 171.449 95.976H169.229C169.213 95.704 169.113 95.492 168.929 95.34C168.745 95.18 168.509 95.1 168.221 95.1C167.973 95.1 167.773 95.168 167.621 95.304C167.469 95.432 167.393 95.62 167.393 95.868C167.393 96.14 167.521 96.352 167.777 96.504C168.033 96.656 168.433 96.82 168.977 96.996C169.521 97.18 169.961 97.356 170.297 97.524C170.641 97.692 170.937 97.936 171.185 98.256C171.433 98.576 171.557 98.988 171.557 99.492C171.557 99.972 171.433 100.408 171.185 100.8C170.945 101.192 170.593 101.504 170.129 101.736C169.665 101.968 169.117 102.084 168.485 102.084ZM176.936 95.232C177.704 95.232 178.32 95.488 178.784 96C179.248 96.504 179.48 97.2 179.48 98.088V102H177.44V98.364C177.44 97.916 177.324 97.568 177.092 97.32C176.86 97.072 176.548 96.948 176.156 96.948C175.764 96.948 175.452 97.072 175.22 97.32C174.988 97.568 174.872 97.916 174.872 98.364V102H172.82V93.12H174.872V96.204C175.08 95.908 175.364 95.672 175.724 95.496C176.084 95.32 176.488 95.232 176.936 95.232ZM187.218 98.544C187.218 98.736 187.206 98.936 187.182 99.144H182.538C182.57 99.56 182.702 99.88 182.934 100.104C183.174 100.32 183.466 100.428 183.81 100.428C184.322 100.428 184.678 100.212 184.878 99.78H187.062C186.95 100.22 186.746 100.616 186.45 100.968C186.162 101.32 185.798 101.596 185.358 101.796C184.918 101.996 184.426 102.096 183.882 102.096C183.226 102.096 182.642 101.956 182.13 101.676C181.618 101.396 181.218 100.996 180.93 100.476C180.642 99.956 180.498 99.348 180.498 98.652C180.498 97.956 180.638 97.348 180.918 96.828C181.206 96.308 181.606 95.908 182.118 95.628C182.63 95.348 183.218 95.208 183.882 95.208C184.53 95.208 185.106 95.344 185.61 95.616C186.114 95.888 186.506 96.276 186.786 96.78C187.074 97.284 187.218 97.872 187.218 98.544ZM185.118 98.004C185.118 97.652 184.998 97.372 184.758 97.164C184.518 96.956 184.218 96.852 183.858 96.852C183.514 96.852 183.222 96.952 182.982 97.152C182.75 97.352 182.606 97.636 182.55 98.004H185.118ZM190.353 93.12V102H188.301V93.12H190.353ZM193.892 93.12V102H191.84V93.12H193.892Z" fill="white"/>
</svg>
