<svg width="304" height="197" viewBox="0 0 304 197" fill="none" xmlns="http://www.w3.org/2000/svg">
<rect x="17" y="15" width="20" height="167" fill="#7B7B7B"/>
<rect x="15.5" y="15.5" width="272" height="8" fill="#7B7B7B" stroke="#959595"/>
<rect x="15" y="14" width="274" height="169" rx="6" stroke="white" stroke-width="4"/>
<path d="M119.252 93.576V98.616C119.252 99.12 119.376 99.508 119.624 99.78C119.872 100.052 120.236 100.188 120.716 100.188C121.196 100.188 121.564 100.052 121.82 99.78C122.076 99.508 122.204 99.12 122.204 98.616V93.576H124.256V98.604C124.256 99.356 124.096 99.992 123.776 100.512C123.456 101.032 123.024 101.424 122.48 101.688C121.944 101.952 121.344 102.084 120.68 102.084C120.016 102.084 119.42 101.956 118.892 101.7C118.372 101.436 117.96 101.044 117.656 100.524C117.352 99.996 117.2 99.356 117.2 98.604V93.576H119.252ZM127.749 96.252C127.941 95.94 128.217 95.688 128.577 95.496C128.937 95.304 129.349 95.208 129.813 95.208C130.365 95.208 130.865 95.348 131.313 95.628C131.761 95.908 132.113 96.308 132.369 96.828C132.633 97.348 132.765 97.952 132.765 98.64C132.765 99.328 132.633 99.936 132.369 100.464C132.113 100.984 131.761 101.388 131.313 101.676C130.865 101.956 130.365 102.096 129.813 102.096C129.341 102.096 128.929 102.004 128.577 101.82C128.225 101.628 127.949 101.376 127.749 101.064V102H125.697V93.12H127.749V96.252ZM130.677 98.64C130.677 98.128 130.533 97.728 130.245 97.44C129.965 97.144 129.617 96.996 129.201 96.996C128.793 96.996 128.445 97.144 128.157 97.44C127.877 97.736 127.737 98.14 127.737 98.652C127.737 99.164 127.877 99.568 128.157 99.864C128.445 100.16 128.793 100.308 129.201 100.308C129.609 100.308 129.957 100.16 130.245 99.864C130.533 99.56 130.677 99.152 130.677 98.64ZM140.454 95.304V102H138.402V101.088C138.194 101.384 137.91 101.624 137.55 101.808C137.198 101.984 136.806 102.072 136.374 102.072C135.862 102.072 135.41 101.96 135.018 101.736C134.626 101.504 134.322 101.172 134.106 100.74C133.89 100.308 133.782 99.8 133.782 99.216V95.304H135.822V98.94C135.822 99.388 135.938 99.736 136.17 99.984C136.402 100.232 136.714 100.356 137.106 100.356C137.506 100.356 137.822 100.232 138.054 99.984C138.286 99.736 138.402 99.388 138.402 98.94V95.304H140.454ZM146.008 95.232C146.792 95.232 147.416 95.488 147.88 96C148.352 96.504 148.588 97.2 148.588 98.088V102H146.548V98.364C146.548 97.916 146.432 97.568 146.2 97.32C145.968 97.072 145.656 96.948 145.264 96.948C144.872 96.948 144.56 97.072 144.328 97.32C144.096 97.568 143.98 97.916 143.98 98.364V102H141.928V95.304H143.98V96.192C144.188 95.896 144.468 95.664 144.82 95.496C145.172 95.32 145.568 95.232 146.008 95.232ZM153.746 100.26V102H152.702C151.958 102 151.378 101.82 150.962 101.46C150.546 101.092 150.338 100.496 150.338 99.672V97.008H149.522V95.304H150.338V93.672H152.39V95.304H153.734V97.008H152.39V99.696C152.39 99.896 152.438 100.04 152.534 100.128C152.63 100.216 152.79 100.26 153.014 100.26H153.746ZM161.501 95.304V102H159.449V101.088C159.241 101.384 158.957 101.624 158.597 101.808C158.245 101.984 157.853 102.072 157.421 102.072C156.909 102.072 156.457 101.96 156.065 101.736C155.673 101.504 155.369 101.172 155.153 100.74C154.937 100.308 154.829 99.8 154.829 99.216V95.304H156.869V98.94C156.869 99.388 156.985 99.736 157.217 99.984C157.449 100.232 157.761 100.356 158.153 100.356C158.553 100.356 158.869 100.232 159.101 99.984C159.333 99.736 159.449 99.388 159.449 98.94V95.304H161.501ZM168.134 96.936V98.64H162.854V96.936H168.134ZM170.967 94.608C170.607 94.608 170.311 94.504 170.079 94.296C169.855 94.08 169.743 93.816 169.743 93.504C169.743 93.184 169.855 92.92 170.079 92.712C170.311 92.496 170.607 92.388 170.967 92.388C171.319 92.388 171.607 92.496 171.831 92.712C172.063 92.92 172.179 93.184 172.179 93.504C172.179 93.816 172.063 94.08 171.831 94.296C171.607 94.504 171.319 94.608 170.967 94.608ZM171.987 95.304V102H169.935V95.304H171.987ZM176.198 102.096C175.614 102.096 175.094 101.996 174.638 101.796C174.182 101.596 173.822 101.324 173.558 100.98C173.294 100.628 173.146 100.236 173.114 99.804H175.142C175.166 100.036 175.274 100.224 175.466 100.368C175.658 100.512 175.894 100.584 176.174 100.584C176.43 100.584 176.626 100.536 176.762 100.44C176.906 100.336 176.978 100.204 176.978 100.044C176.978 99.852 176.878 99.712 176.678 99.624C176.478 99.528 176.154 99.424 175.706 99.312C175.226 99.2 174.826 99.084 174.506 98.964C174.186 98.836 173.91 98.64 173.678 98.376C173.446 98.104 173.33 97.74 173.33 97.284C173.33 96.9 173.434 96.552 173.642 96.24C173.858 95.92 174.17 95.668 174.578 95.484C174.994 95.3 175.486 95.208 176.054 95.208C176.894 95.208 177.554 95.416 178.034 95.832C178.522 96.248 178.802 96.8 178.874 97.488H176.978C176.946 97.256 176.842 97.072 176.666 96.936C176.498 96.8 176.274 96.732 175.994 96.732C175.754 96.732 175.57 96.78 175.442 96.876C175.314 96.964 175.25 97.088 175.25 97.248C175.25 97.44 175.35 97.584 175.55 97.68C175.758 97.776 176.078 97.872 176.51 97.968C177.006 98.096 177.41 98.224 177.722 98.352C178.034 98.472 178.306 98.672 178.538 98.952C178.778 99.224 178.902 99.592 178.91 100.056C178.91 100.448 178.798 100.8 178.574 101.112C178.358 101.416 178.042 101.656 177.626 101.832C177.218 102.008 176.742 102.096 176.198 102.096ZM184.282 95.232C185.05 95.232 185.666 95.488 186.13 96C186.594 96.504 186.826 97.2 186.826 98.088V102H184.786V98.364C184.786 97.916 184.67 97.568 184.438 97.32C184.206 97.072 183.894 96.948 183.502 96.948C183.11 96.948 182.798 97.072 182.566 97.32C182.334 97.568 182.218 97.916 182.218 98.364V102H180.166V93.12H182.218V96.204C182.426 95.908 182.71 95.672 183.07 95.496C183.43 95.32 183.834 95.232 184.282 95.232Z" fill="white"/>
</svg>
