<svg width="304" height="197" viewBox="0 0 304 197" fill="none" xmlns="http://www.w3.org/2000/svg">
<rect x="17" y="170" width="271" height="12" fill="#7B7B7B"/>
<rect x="15" y="14" width="274" height="169" rx="6" stroke="white" stroke-width="4"/>
<path d="M131.541 93.576L129.345 102H126.861L125.517 96.456L124.125 102H121.641L119.505 93.576H121.701L122.913 99.708L124.413 93.576H126.669L128.109 99.708L129.333 93.576H131.541ZM133.602 94.608C133.242 94.608 132.946 94.504 132.714 94.296C132.49 94.08 132.378 93.816 132.378 93.504C132.378 93.184 132.49 92.92 132.714 92.712C132.946 92.496 133.242 92.388 133.602 92.388C133.954 92.388 134.242 92.496 134.466 92.712C134.698 92.92 134.814 93.184 134.814 93.504C134.814 93.816 134.698 94.08 134.466 94.296C134.242 94.504 133.954 94.608 133.602 94.608ZM134.622 95.304V102H132.57V95.304H134.622ZM140.189 95.232C140.973 95.232 141.597 95.488 142.061 96C142.533 96.504 142.769 97.2 142.769 98.088V102H140.729V98.364C140.729 97.916 140.613 97.568 140.381 97.32C140.149 97.072 139.837 96.948 139.445 96.948C139.053 96.948 138.741 97.072 138.509 97.32C138.277 97.568 138.161 97.916 138.161 98.364V102H136.109V95.304H138.161V96.192C138.369 95.896 138.649 95.664 139.001 95.496C139.353 95.32 139.749 95.232 140.189 95.232ZM149.355 102L147.639 99.42L146.127 102H143.799L146.499 97.716L143.739 93.576H146.127L147.819 96.12L149.307 93.576H151.635L148.959 97.824L151.743 102H149.355ZM159.193 96.288C159.193 96.776 159.081 97.224 158.857 97.632C158.633 98.032 158.289 98.356 157.825 98.604C157.361 98.852 156.785 98.976 156.097 98.976H154.825V102H152.773V93.576H156.097C156.769 93.576 157.337 93.692 157.801 93.924C158.265 94.156 158.613 94.476 158.845 94.884C159.077 95.292 159.193 95.76 159.193 96.288ZM155.941 97.344C156.333 97.344 156.625 97.252 156.817 97.068C157.009 96.884 157.105 96.624 157.105 96.288C157.105 95.952 157.009 95.692 156.817 95.508C156.625 95.324 156.333 95.232 155.941 95.232H154.825V97.344H155.941ZM165.422 96.936V98.64H160.142V96.936H165.422ZM168.255 94.608C167.895 94.608 167.599 94.504 167.367 94.296C167.143 94.08 167.031 93.816 167.031 93.504C167.031 93.184 167.143 92.92 167.367 92.712C167.599 92.496 167.895 92.388 168.255 92.388C168.607 92.388 168.895 92.496 169.119 92.712C169.351 92.92 169.467 93.184 169.467 93.504C169.467 93.816 169.351 94.08 169.119 94.296C168.895 94.504 168.607 94.608 168.255 94.608ZM169.275 95.304V102H167.223V95.304H169.275ZM173.486 102.096C172.902 102.096 172.382 101.996 171.926 101.796C171.47 101.596 171.11 101.324 170.846 100.98C170.582 100.628 170.434 100.236 170.402 99.804H172.43C172.454 100.036 172.562 100.224 172.754 100.368C172.946 100.512 173.182 100.584 173.462 100.584C173.718 100.584 173.914 100.536 174.05 100.44C174.194 100.336 174.266 100.204 174.266 100.044C174.266 99.852 174.166 99.712 173.966 99.624C173.766 99.528 173.442 99.424 172.994 99.312C172.514 99.2 172.114 99.084 171.794 98.964C171.474 98.836 171.198 98.64 170.966 98.376C170.734 98.104 170.618 97.74 170.618 97.284C170.618 96.9 170.722 96.552 170.93 96.24C171.146 95.92 171.458 95.668 171.866 95.484C172.282 95.3 172.774 95.208 173.342 95.208C174.182 95.208 174.842 95.416 175.322 95.832C175.81 96.248 176.09 96.8 176.162 97.488H174.266C174.234 97.256 174.13 97.072 173.954 96.936C173.786 96.8 173.562 96.732 173.282 96.732C173.042 96.732 172.858 96.78 172.73 96.876C172.602 96.964 172.538 97.088 172.538 97.248C172.538 97.44 172.638 97.584 172.838 97.68C173.046 97.776 173.366 97.872 173.798 97.968C174.294 98.096 174.698 98.224 175.01 98.352C175.322 98.472 175.594 98.672 175.826 98.952C176.066 99.224 176.19 99.592 176.198 100.056C176.198 100.448 176.086 100.8 175.862 101.112C175.646 101.416 175.33 101.656 174.914 101.832C174.506 102.008 174.03 102.096 173.486 102.096ZM181.569 95.232C182.337 95.232 182.953 95.488 183.417 96C183.881 96.504 184.113 97.2 184.113 98.088V102H182.073V98.364C182.073 97.916 181.957 97.568 181.725 97.32C181.493 97.072 181.181 96.948 180.789 96.948C180.397 96.948 180.085 97.072 179.853 97.32C179.621 97.568 179.505 97.916 179.505 98.364V102H177.453V93.12H179.505V96.204C179.713 95.908 179.997 95.672 180.357 95.496C180.717 95.32 181.121 95.232 181.569 95.232Z" fill="white"/>
<rect x="20" y="83" width="47" height="84" rx="2" fill="#7B7B7B"/>
</svg>
